<mxfile host="app.diagrams.net" modified="2024-03-22T17:39:35.845Z" agent="Mozilla/5.0 (Windows NT 10.0; Win64; x64) AppleWebKit/537.36 (KHTML, like Gecko) Chrome/123.0.0.0 Safari/537.36" etag="Bc41j-2_-elQvLE__y1e" version="24.0.7" type="device">
  <diagram name="Page-1" id="8hKibcSq7KjNmWwxo5Us">
    <mxGraphModel dx="1112" dy="1228" grid="0" gridSize="10" guides="1" tooltips="1" connect="1" arrows="1" fold="1" page="0" pageScale="1" pageWidth="850" pageHeight="1100" math="0" shadow="0">
      <root>
        <mxCell id="0" />
        <mxCell id="1" parent="0" />
        <mxCell id="bw0q_lUKFpmsDvN4u2hM-22" value="&lt;div style=&quot;box-sizing:border-box;width:100%;background:#e4e4e4;padding:2px;&quot;&gt;dim_driver&lt;/div&gt;&lt;table style=&quot;width:100%;font-size:1em;&quot; cellpadding=&quot;2&quot; cellspacing=&quot;0&quot;&gt;&lt;tbody&gt;&lt;tr&gt;&lt;td&gt;PK&lt;/td&gt;&lt;td&gt;driver_id&lt;/td&gt;&lt;/tr&gt;&lt;tr&gt;&lt;td&gt;&lt;br&gt;&lt;/td&gt;&lt;td&gt;driver_number&lt;/td&gt;&lt;/tr&gt;&lt;tr&gt;&lt;td&gt;&lt;/td&gt;&lt;td&gt;code&lt;br&gt;url&lt;br&gt;given_name&lt;br&gt;family_name&lt;br&gt;birthdate&lt;br&gt;nationality&lt;br&gt;start_grass_date&lt;br&gt;end_grass_date&lt;br&gt;is_current&lt;/td&gt;&lt;/tr&gt;&lt;/tbody&gt;&lt;/table&gt;" style="verticalAlign=top;align=left;overflow=fill;html=1;whiteSpace=wrap;" parent="1" vertex="1">
          <mxGeometry x="242" y="84" width="166" height="192" as="geometry" />
        </mxCell>
        <mxCell id="bw0q_lUKFpmsDvN4u2hM-36" value="&lt;div style=&quot;box-sizing:border-box;width:100%;background:#e4e4e4;padding:2px;&quot;&gt;dim_constructor&lt;/div&gt;&lt;table style=&quot;width:100%;font-size:1em;&quot; cellpadding=&quot;2&quot; cellspacing=&quot;0&quot;&gt;&lt;tbody&gt;&lt;tr&gt;&lt;td&gt;PK&lt;/td&gt;&lt;td&gt;constructor_id&lt;/td&gt;&lt;/tr&gt;&lt;tr&gt;&lt;td&gt;&lt;br&gt;&lt;/td&gt;&lt;td&gt;url&lt;br&gt;name&lt;br&gt;nationality&lt;/td&gt;&lt;/tr&gt;&lt;/tbody&gt;&lt;/table&gt;" style="verticalAlign=top;align=left;overflow=fill;html=1;whiteSpace=wrap;" parent="1" vertex="1">
          <mxGeometry x="13" y="-271" width="166" height="89" as="geometry" />
        </mxCell>
        <mxCell id="bw0q_lUKFpmsDvN4u2hM-39" value="&lt;div style=&quot;box-sizing:border-box;width:100%;background:#e4e4e4;padding:2px;&quot;&gt;race_result&lt;/div&gt;&lt;table style=&quot;width:100%;font-size:1em;&quot; cellpadding=&quot;2&quot; cellspacing=&quot;0&quot;&gt;&lt;tbody&gt;&lt;tr&gt;&lt;td&gt;&lt;br&gt;&lt;br&gt;&lt;br&gt;&lt;br&gt;&lt;br&gt;&lt;br&gt;&lt;br&gt;&lt;br&gt;&lt;br&gt;FK&lt;br&gt;FK&lt;br&gt;&lt;br&gt;&lt;br&gt;FK&lt;br&gt;FK&lt;/td&gt;&lt;td&gt;driver_number&lt;br&gt;position&lt;br&gt;position_text&lt;br&gt;points&lt;br&gt;grid&lt;br&gt;laps&lt;br&gt;status&lt;br&gt;season&lt;br&gt;round&lt;br&gt;driver_id&lt;br&gt;constructor_id&lt;br&gt;absolute_millisecond&lt;br&gt;relative_time&lt;br&gt;session_key&lt;br&gt;meeting_key&lt;/td&gt;&lt;/tr&gt;&lt;/tbody&gt;&lt;/table&gt;" style="verticalAlign=top;align=left;overflow=fill;html=1;whiteSpace=wrap;" parent="1" vertex="1">
          <mxGeometry x="458" y="-173" width="166" height="243" as="geometry" />
        </mxCell>
        <mxCell id="bw0q_lUKFpmsDvN4u2hM-72" value="&lt;div style=&quot;box-sizing:border-box;width:100%;background:#e4e4e4;padding:2px;&quot;&gt;dim_season&lt;/div&gt;&lt;table style=&quot;width:100%;font-size:1em;&quot; cellpadding=&quot;2&quot; cellspacing=&quot;0&quot;&gt;&lt;tbody&gt;&lt;tr&gt;&lt;td&gt;&lt;br&gt;&lt;br&gt;&lt;br&gt;&lt;br&gt;&lt;br&gt;&lt;br&gt;&lt;br&gt;&lt;br&gt;FK&lt;/td&gt;&lt;td&gt;season&lt;br&gt;round&lt;br&gt;url&lt;br&gt;race_name&lt;br&gt;date&lt;br&gt;time&lt;br&gt;first_practice&lt;br&gt;second_practice&lt;br&gt;third_practice&lt;br&gt;qualifying&lt;br&gt;sprint&lt;br&gt;circuit_id&lt;br&gt;circuit_url&lt;br&gt;circuit_name&lt;br&gt;location&lt;/td&gt;&lt;/tr&gt;&lt;/tbody&gt;&lt;/table&gt;" style="verticalAlign=top;align=left;overflow=fill;html=1;whiteSpace=wrap;" parent="1" vertex="1">
          <mxGeometry x="231" y="-247" width="170" height="240" as="geometry" />
        </mxCell>
        <mxCell id="bw0q_lUKFpmsDvN4u2hM-73" value="&lt;div style=&quot;box-sizing:border-box;width:100%;background:#e4e4e4;padding:2px;&quot;&gt;dim_meeting&lt;/div&gt;&lt;table style=&quot;width:100%;font-size:1em;&quot; cellpadding=&quot;2&quot; cellspacing=&quot;0&quot;&gt;&lt;tbody&gt;&lt;tr&gt;&lt;td&gt;&lt;br&gt;&lt;br&gt;&lt;br&gt;&lt;br&gt;&lt;br&gt;&lt;br&gt;&lt;br&gt;&lt;br&gt;&lt;br&gt;&lt;br&gt;&lt;br&gt;PK&lt;br&gt;&lt;span style=&quot;white-space: pre;&quot;&gt;&#x9;&lt;/span&gt;&lt;br&gt;&lt;/td&gt;&lt;td&gt;meeting_name&lt;br&gt;meeting_official_name&lt;br&gt;city&lt;br&gt;race_name&lt;br&gt;country_key&lt;br&gt;country_code&lt;br&gt;country_name&lt;br&gt;circuit_key&lt;br&gt;circuit_short_name&lt;br&gt;date_start&lt;br&gt;gmt_offset&lt;br&gt;meeting_key&lt;br&gt;year&lt;/td&gt;&lt;/tr&gt;&lt;/tbody&gt;&lt;/table&gt;" style="verticalAlign=top;align=left;overflow=fill;html=1;whiteSpace=wrap;" parent="1" vertex="1">
          <mxGeometry x="5" y="-113" width="187" height="211" as="geometry" />
        </mxCell>
        <mxCell id="bw0q_lUKFpmsDvN4u2hM-74" value="&lt;div style=&quot;box-sizing:border-box;width:100%;background:#e4e4e4;padding:2px;&quot;&gt;weather_info&lt;/div&gt;&lt;table style=&quot;width:100%;font-size:1em;&quot; cellpadding=&quot;2&quot; cellspacing=&quot;0&quot;&gt;&lt;tbody&gt;&lt;tr&gt;&lt;td&gt;FK&lt;br&gt;FK&lt;br&gt;&lt;br&gt;&lt;br&gt;&lt;br&gt;&lt;br&gt;&lt;br&gt;&lt;br&gt;&lt;span style=&quot;white-space: pre;&quot;&gt;&#x9;&lt;/span&gt;&lt;br&gt;&lt;/td&gt;&lt;td&gt;meeting_key&lt;br&gt;session_key&lt;br&gt;date&lt;br&gt;air_temperature&lt;br&gt;humidity&lt;br&gt;pressure&lt;br&gt;rainfall&lt;br&gt;track_temperature&lt;br&gt;wind_direction&lt;br&gt;wind_speed&lt;/td&gt;&lt;/tr&gt;&lt;/tbody&gt;&lt;/table&gt;" style="verticalAlign=top;align=left;overflow=fill;html=1;whiteSpace=wrap;" parent="1" vertex="1">
          <mxGeometry x="-222" y="-237" width="187" height="170" as="geometry" />
        </mxCell>
        <mxCell id="B52SO6Fe7-1hpps4NWud-1" value="&lt;div style=&quot;box-sizing:border-box;width:100%;background:#e4e4e4;padding:2px;&quot;&gt;laps_data&lt;/div&gt;&lt;table style=&quot;width:100%;font-size:1em;&quot; cellpadding=&quot;2&quot; cellspacing=&quot;0&quot;&gt;&lt;tbody&gt;&lt;tr&gt;&lt;td&gt;FK&lt;br&gt;FK&lt;br&gt;&lt;br&gt;&lt;br&gt;&lt;br&gt;&lt;br&gt;&lt;br&gt;&lt;br&gt;&lt;br&gt;&lt;br&gt;&lt;br&gt;&lt;br&gt;&lt;br&gt;&lt;span style=&quot;white-space: pre;&quot;&gt;&#x9;&lt;/span&gt;&lt;br&gt;&lt;/td&gt;&lt;td&gt;&lt;br&gt;&lt;br&gt;meeting_key&lt;br&gt;session_key&lt;br&gt;driver_number&lt;br&gt;i1_speed&lt;br&gt;i2_speed&lt;br&gt;st_speed&lt;br&gt;date_start&lt;br&gt;lap_duration&lt;br&gt;is_pit_out_lap&lt;br&gt;duration_sector_1&lt;br&gt;duration_sector_2&lt;br&gt;duration_sector_3&lt;br&gt;segments_sector_1&lt;br&gt;segments_sector_2&lt;br&gt;segments_sector_3&lt;br&gt;lap_number&lt;/td&gt;&lt;/tr&gt;&lt;/tbody&gt;&lt;/table&gt;" style="verticalAlign=top;align=left;overflow=fill;html=1;whiteSpace=wrap;" parent="1" vertex="1">
          <mxGeometry x="-217" y="-35" width="187" height="308" as="geometry" />
        </mxCell>
        <mxCell id="B52SO6Fe7-1hpps4NWud-2" value="&lt;div style=&quot;box-sizing:border-box;width:100%;background:#e4e4e4;padding:2px;&quot;&gt;dim_session&lt;/div&gt;&lt;table style=&quot;width:100%;font-size:1em;&quot; cellpadding=&quot;2&quot; cellspacing=&quot;0&quot;&gt;&lt;tbody&gt;&lt;tr&gt;&lt;td&gt;&lt;br&gt;&lt;br&gt;&lt;br&gt;&lt;br&gt;&lt;br&gt;&lt;br&gt;PK&lt;br&gt;FK&lt;br&gt;&lt;span style=&quot;white-space: pre;&quot;&gt;&#x9;&lt;/span&gt;&lt;br&gt;&lt;/td&gt;&lt;td&gt;location&lt;br&gt;session_type&lt;br&gt;session_name&lt;br&gt;date_start&lt;br&gt;date_end&lt;br&gt;gmt_offset&lt;br&gt;session_key&lt;br&gt;meeting_key&lt;br&gt;year&lt;/td&gt;&lt;/tr&gt;&lt;/tbody&gt;&lt;/table&gt;" style="verticalAlign=top;align=left;overflow=fill;html=1;whiteSpace=wrap;" parent="1" vertex="1">
          <mxGeometry x="13" y="188" width="187" height="154" as="geometry" />
        </mxCell>
        <mxCell id="dnQTCi0QhrLsdu1UVP2_-1" value="&lt;div style=&quot;box-sizing:border-box;width:100%;background:#e4e4e4;padding:2px;&quot;&gt;fastest_lap&lt;/div&gt;&lt;table style=&quot;width:100%;font-size:1em;&quot; cellpadding=&quot;2&quot; cellspacing=&quot;0&quot;&gt;&lt;tbody&gt;&lt;tr&gt;&lt;td&gt;&lt;br&gt;&lt;br&gt;&lt;br&gt;&lt;br&gt;&lt;br&gt;FK&lt;br&gt;FK&lt;br&gt;&lt;br&gt;&lt;br&gt;&lt;br&gt;&lt;span style=&quot;white-space: pre;&quot;&gt;&#x9;&lt;/span&gt;&lt;br&gt;&lt;/td&gt;&lt;td&gt;driver_number&lt;br&gt;points&lt;br&gt;season&lt;br&gt;round&lt;br&gt;permanent_number&lt;br&gt;driver_id&lt;br&gt;constructor_id&lt;br&gt;rank_fastest_lap&lt;br&gt;lap&lt;br&gt;time&lt;br&gt;average_speed&lt;br&gt;&lt;/td&gt;&lt;/tr&gt;&lt;/tbody&gt;&lt;/table&gt;" style="verticalAlign=top;align=left;overflow=fill;html=1;whiteSpace=wrap;" vertex="1" parent="1">
          <mxGeometry x="447.5" y="133" width="187" height="197" as="geometry" />
        </mxCell>
      </root>
    </mxGraphModel>
  </diagram>
</mxfile>
